<svg xmlns="http://www.w3.org/2000/svg" xmlns:xlink="http://www.w3.org/1999/xlink" version="1.1" width="256" height="256" viewBox="0 0 256 256" xml:space="preserve">
<g transform="translate(1.4065934065934016 1.4065934065934016) scale(2.81 2.81)" fill="#2563EB">
	<path d="M 86.576 34.001 l -5.795 5.795 L 69.007 28.022 c -1.074 -1.074 -2.815 -1.074 -3.889 0 l -3.174 3.174 L 50.102 43.039 L 7.869 0.805 c -1.074 -1.074 -2.815 -1.074 -3.889 0 L 0.805 3.979 c -1.074 1.074 -1.074 2.815 0 3.889 l 45.513 45.513 c 0.077 0.077 0.164 0.136 0.247 0.202 l 1.614 1.614 c 1.074 1.074 2.815 1.074 3.889 0 l 14.994 -14.994 l 6.656 6.656 l -5.795 5.795 c -1.263 1.263 -0.369 3.424 1.418 3.424 h 18.652 c 1.108 0 2.006 -0.898 2.006 -2.006 V 35.419 C 90 33.633 87.84 32.738 86.576 34.001 z" />
	<path d="M 69.342 60.577 c -1.364 0 -2.649 -0.427 -3.715 -1.17 V 87.25 c 0 1.519 1.231 2.75 2.75 2.75 h 8.782 c 1.519 0 2.75 -1.231 2.75 -2.75 V 60.577 H 69.342 z" />
	<path d="M 55.25 58.379 c -1.367 1.369 -3.188 2.124 -5.126 2.124 c -1.057 0 -2.076 -0.232 -3.009 -0.659 V 87.25 c 0 1.519 1.231 2.75 2.75 2.75 h 8.782 c 1.519 0 2.75 -1.231 2.75 -2.75 V 52.233 L 55.25 58.379 z" />
	<path d="M 28.604 42.031 V 87.25 c 0 1.519 1.231 2.75 2.75 2.75 h 8.782 c 1.519 0 2.75 -1.231 2.75 -2.75 V 56.312 L 28.604 42.031 z" />
	<path d="M 10.092 23.519 V 87.25 c 0 1.519 1.231 2.75 2.75 2.75 h 8.782 c 1.519 0 2.75 -1.231 2.75 -2.75 V 37.801 L 10.092 23.519 z" />
</g>
</svg>
