<svg xmlns="http://www.w3.org/2000/svg" xmlns:xlink="http://www.w3.org/1999/xlink" version="1.1" width="256" height="256" viewBox="0 0 256 256" xml:space="preserve">
<g style="stroke: #1D4ED8; stroke-width: 1; stroke-dasharray: none; stroke-linecap: butt; stroke-linejoin: miter; stroke-miterlimit: 10; fill: #2563eb; fill-rule: nonzero; opacity: 1;" transform="translate(1.4065934065934016 1.4065934065934016) scale(2.81 2.81)">
    <path d="M 70.157 0 L 58.383 3.955 l 2.994 2.642 c -6.686 6.774 -15 11.396 -24.155 13.408 l -7.156 1.572 c -1.2 0.264 -1.959 1.45 -1.695 2.65 c 0.229 1.039 1.149 1.747 2.171 1.747 c 0.158 0 0.319 -0.017 0.48 -0.052 l 7.156 -1.572 c 10.081 -2.215 19.218 -7.324 26.538 -14.809 l 2.983 2.632 L 70.157 0 z"/>
    <path d="M 71.047 18.693 h -5.124 c -1.385 0 -2.508 1.123 -2.508 2.508 v 29.805 c 0.103 0.109 0.195 0.227 0.286 0.346 l 0.01 -0.007 l 9.844 -8.399 V 21.202 C 73.555 19.816 72.432 18.693 71.047 18.693 z"/>
    <path d="M 56.48 49.666 V 30.99 c 0 -1.385 -1.123 -2.508 -2.508 -2.508 h -5.124 c -1.385 0 -2.508 1.123 -2.508 2.508 v 18.676 H 56.48 z"/>
    <path d="M 39.404 49.094 V 36.329 c 0 -1.385 -1.123 -2.508 -2.508 -2.508 h -5.124 c -1.385 0 -2.508 1.123 -2.508 2.508 v 13.399 C 32.409 48.773 35.785 48.55 39.404 49.094 z"/>
    <path d="M 23.305 89.434 L 4.151 71.936 c -0.881 -0.805 -0.943 -2.173 -0.138 -3.054 l 6.266 -6.859 c 0.805 -0.881 2.173 -0.943 3.054 -0.138 l 19.153 17.498 c 0.881 0.805 0.943 2.173 0.138 3.054 l -6.266 6.859 C 25.553 90.178 24.186 90.24 23.305 89.434 z"/>
    <path d="M 84.819 42.42 c -1.799 -1.392 -4.356 -1.212 -5.942 0.419 l -12.459 10.63 c 0.53 1.567 0.802 3.089 0.802 3.988 c 0 3.185 -2.562 5.783 -5.733 5.842 l -18.303 2.724 c -0.069 0.011 -0.138 0.015 -0.206 0.015 c -0.678 0 -1.271 -0.495 -1.374 -1.186 c -0.113 -0.76 0.412 -1.467 1.171 -1.58 l 18.603 -2.754 c 1.688 0 3.061 -1.374 3.061 -3.061 c 0 -1.097 -0.412 -2.599 -0.962 -3.912 c -0.624 -0.341 -1.336 -0.541 -2.099 -0.541 H 42.578 c -9.918 -2.522 -18.15 0.281 -25.005 7.431 l 16.474 15.05 l 3.181 -2.137 c 1.123 -0.503 2.324 -0.803 3.548 -0.803 h 15.821 c 5.083 0 9.921 -2.184 13.283 -5.997 l 15.554 -17.638 C 87.142 46.975 86.859 44 84.819 42.42 z"/>
</g>
</svg>
